# xmcd
#
# Track frame offsets:
#	150
#	13693
#	25854
#	38774
#	53717
#	66938
#	81903
#	93988
#	105088
#	118255
#	132439
#	144361
#	158385
#	171375
#	186299
#	198437
#	212072
#	225045
#
# Disc length: 3172 seconds
# Revision: 2
# Processed by: cddbd v1.5.2PL0 Copyright (c) Steve Scherf et al.
# Submitted via: dBpowerAMP V12.0
#
DISCID=e60c6212
DTITLE=Various Artist - The Aristocrat Blues Story CD1
DYEAR=2014
DGENRE=Blues
TTITLE0=Muddy Waters - Rollin' and Tumblin' (Part 1)
TTITLE1=Sunnyland Slim - My Baby, My Baby
TTITLE2=Robert Nighthawk - Jackson Town Gal
TTITLE3=Little Johnny Jones - Shelby County Blues
TTITLE4=Andrew Tibbs - I Feel Like Crying
TTITLE5=Forest City Joe - Memory of Sonny Boy
TTITLE6=Clarence Samuels - Boogie Woogie Blues
TTITLE7=Leroy Foster - Locked Out Boogie
TTITLE8=St. Louis Jimmy - Florida Hurricane
TTITLE9=Tom Archia w George Kirby - Ice Man Blues
TTITLE10=Muddy Waters - You're Gonna Miss Me
TTITLE11=Andrew Tibbs - Toothless Woman Blues
TTITLE12=Five Blazes and Ernie Harper - Chicago Boogie
TTITLE13=Famous Blue Jay Singers of Birmingham - I'm Bound for Canaan Land
TTITLE14=Laura Rucker - Crying the Blues
TTITLE15=Tom Archia w Sheba Griffin - Mean and Evil Baby
TTITLE16=Robert Nighthawk - Six Three 0
TTITLE17=Sunnyland Slim - Johnson Machine Gun
EXTD=
EXTT0=
EXTT1=
EXTT2=
EXTT3=
EXTT4=
EXTT5=
EXTT6=
EXTT7=
EXTT8=
EXTT9=
EXTT10=
EXTT11=
EXTT12=
EXTT13=
EXTT14=
EXTT15=
EXTT16=
EXTT17=
PLAYORDER=
